<?xml version="1.0" standalone="no"?>
<!DOCTYPE svg PUBLIC "-//W3C//DTD SVG 20010904//EN"
 "http://www.w3.org/TR/2001/REC-SVG-20010904/DTD/svg10.dtd">
<svg version="1.0" xmlns="http://www.w3.org/2000/svg"
 width="920.000000pt" height="968.000000pt" viewBox="0 0 920.000000 968.000000"
 preserveAspectRatio="xMidYMid meet">
<metadata>
Created by potrace 1.15, written by Peter Selinger 2001-2017
</metadata>
<g transform="translate(0.000000,968.000000) scale(0.100000,-0.100000)"
fill="#000000" stroke="none">
<path d="M776 9264 c-32 -10 -64 -31 -96 -63 -88 -88 -80 325 -80 -3956 0
-4280 -8 -3868 80 -3955 87 -88 -202 -80 2949 -80 1872 0 2808 3 2833 10 63
18 129 70 162 130 l31 55 3 1500 2 1500 -265 -265 -265 -265 -2 -1065 -3
-1065 -2497 -3 -2498 -2 0 3505 0 3505 2498 -2 2497 -3 5 -863 5 -862 263 263
262 263 -2 769 -3 770 -31 55 c-33 60 -99 112 -162 130 -25 7 -960 10 -2837 9
-2453 0 -2806 -2 -2849 -15z"/>
<path d="M1834 8091 c-80 -37 -134 -139 -115 -221 16 -73 46 -112 111 -146 34
-18 95 -19 1801 -19 l1766 0 48 30 c126 78 129 253 7 340 l-44 30 -1766 2
c-1702 3 -1769 2 -1808 -16z"/>
<path d="M7952 7899 c-79 -10 -120 -23 -197 -62 -52 -26 -268 -238 -1628
-1596 -1666 -1664 -1625 -1621 -1676 -1766 -64 -185 -260 -870 -255 -891 3
-13 20 -36 37 -50 25 -21 38 -25 67 -21 20 2 175 46 345 97 616 183 630 188
764 314 41 39 751 746 1577 1571 l1502 1500 40 82 c52 106 66 174 59 293 -17
330 -305 570 -635 529z"/>
<path d="M1822 6999 c-146 -73 -138 -292 13 -360 38 -18 119 -19 1795 -19
l1756 0 44 23 c24 12 58 39 74 60 29 36 31 45 31 116 0 88 -20 128 -83 172
l-36 24 -1775 3 -1776 2 -43 -21z"/>
<path d="M1834 5921 c-148 -67 -158 -275 -16 -359 l47 -27 1390 -3 1390 -2
205 205 205 205 -1590 0 c-1525 0 -1592 -1 -1631 -19z"/>
<path d="M1875 4851 c-86 -21 -136 -73 -156 -161 -19 -82 35 -184 115 -221 39
-18 90 -19 1039 -19 l997 0 10 23 c5 12 23 67 40 122 18 55 49 135 69 177 21
43 36 80 33 83 -8 8 -2113 4 -2147 -4z"/>
<path d="M1835 3751 c-151 -68 -159 -289 -13 -360 44 -21 47 -21 962 -21 870
0 918 1 911 18 -34 88 -48 232 -31 335 l7 47 -898 0 c-847 0 -900 -1 -938 -19z"/>
</g>
</svg>
