<?xml version="1.0" encoding="utf-8"?>
<!-- Generator: Adobe Illustrator 16.0.0, SVG Export Plug-In . SVG Version: 6.00 Build 0)  -->
<!DOCTYPE svg PUBLIC "-//W3C//DTD SVG 1.1//EN" "http://www.w3.org/Graphics/SVG/1.1/DTD/svg11.dtd">
<svg version="1.1" id="Layer_1" xmlns="http://www.w3.org/2000/svg" xmlns:xlink="http://www.w3.org/1999/xlink" x="0px" y="0px"
	 width="422.925px" height="426.726px" viewBox="0 0 422.925 426.726" enable-background="new 0 0 422.925 426.726"
	 xml:space="preserve">
<g>
	<path fill-rule="evenodd" clip-rule="evenodd" fill="#FFFFFF" d="M292.323,398.273c0-2.242,0-4.212,0-6.181
		c0-33.828-0.07-67.656,0.136-101.482c0.017-2.62,1.339-5.809,3.126-7.743c7.631-8.259,15.664-16.146,24.413-25.047
		c0.145,2.944,0.29,4.521,0.29,6.098c0.012,48.659,0.014,97.317,0.006,145.976c-0.001,11.953-4.955,16.832-17.045,16.832
		c-95.484,0-190.968,0.001-286.452-0.001c-11.723,0-16.795-5.02-16.795-16.628C0,278.952,0,147.807,0.001,16.662
		c0-11.726,4.932-16.656,16.715-16.657c95.651-0.007,191.301-0.007,286.953,0.001c11.781,0,16.627,4.883,16.631,16.695
		c0.007,23.663,0.092,47.327-0.131,70.987c-0.023,2.453-1.338,5.427-3.035,7.24c-7.604,8.13-15.564,15.927-24.468,24.928
		c0-31.377,0-61.343,0-91.633c-88.46,0-176.191,0-264.319,0c0,123.271,0,246.478,0,370.05
		C116.038,398.273,203.76,398.273,292.323,398.273z"/>
	<path fill-rule="evenodd" clip-rule="evenodd" fill="#FFFFFF" d="M393.468,72.546c12.024,0.809,21.596,6.399,26.855,18.251
		c5.119,11.531,2.583,24.175-6.709,33.513c-19.029,19.124-38.165,38.143-57.257,57.205c-32.999,32.947-66.056,65.838-98.948,98.891
		c-6.289,6.319-13.412,10.621-22.01,12.974c-11.859,3.246-23.541,7.138-35.402,10.376c-2.569,0.702-6.324,0.755-8.134-0.67
		c-1.362-1.072-1.17-5.176-0.494-7.603c3.565-12.797,7.046-25.654,11.51-38.149c2.172-6.08,5.411-12.423,9.89-16.938
		c52.779-53.205,105.886-106.087,158.908-159.053C377.509,75.517,384.661,72.875,393.468,72.546z"/>
	<path fill-rule="evenodd" clip-rule="evenodd" fill="#FFFFFF" d="M160.141,83.116c-29.635-0.001-59.27,0.02-88.905-0.016
		c-6.92-0.008-11.344-3.221-12.218-8.621c-1.021-6.309,3.215-11.852,9.759-12.703c1.149-0.149,2.327-0.092,3.492-0.092
		c58.604-0.004,117.208-0.009,175.813,0.002c8.244,0.002,13.004,3.754,13.244,10.334c0.224,6.121-3.621,10.609-9.787,10.97
		c-4.646,0.271-9.318,0.121-13.979,0.122C211.753,83.12,185.947,83.116,160.141,83.116z"/>
	<path fill-rule="evenodd" clip-rule="evenodd" fill="#FFFFFF" d="M160.4,119.299c29.466,0.002,58.933-0.024,88.399,0.021
		c7.678,0.011,11.919,3.28,12.515,9.331c0.561,5.686-2.492,10.179-8.029,11.549c-1.59,0.393-3.293,0.454-4.943,0.455
		c-58.767,0.021-117.533,0.024-176.3,0.011c-7.299-0.002-11.863-3.037-12.969-8.474c-1.332-6.548,3.038-12.398,9.937-12.743
		c6.311-0.315,12.647-0.145,18.973-0.147C112.121,119.29,136.261,119.296,160.4,119.299z"/>
	<path fill-rule="evenodd" clip-rule="evenodd" fill="#FFFFFF" d="M235.044,177.103c-6.994,6.952-13.397,13.439-19.99,19.729
		c-0.899,0.858-2.744,1.009-4.152,1.01c-46.825,0.049-93.649,0.055-140.474,0.02c-6.862-0.006-11.43-4.271-11.499-10.433
		c-0.069-6.255,4.388-10.784,11.166-10.79c54.323-0.051,108.646-0.016,162.969,0.004
		C233.384,176.642,233.705,176.784,235.044,177.103z"/>
	<path fill-rule="evenodd" clip-rule="evenodd" fill="#FFFFFF" d="M180.663,233.796c-2.34,6.604-4.341,12.729-6.758,18.684
		c-0.507,1.248-2.542,2.667-3.879,2.672c-33.281,0.142-66.563,0.167-99.844,0.047c-7.106-0.025-11.294-4.308-11.251-10.655
		c0.042-6.198,4.419-10.671,11.354-10.692C107.052,233.733,143.821,233.796,180.663,233.796z"/>
	<path fill-rule="evenodd" clip-rule="evenodd" fill="#FFFFFF" d="M161.17,291.376c0.579,7.482,1.098,14.204,1.637,21.171
		c-0.242,0.024-1.027,0.174-1.813,0.174c-29.667,0.012-59.333,0.018-89-0.012c-1.651-0.001-3.35-0.107-4.945-0.497
		c-5.51-1.346-8.63-5.888-8.083-11.521c0.488-5.026,4.589-8.981,10.143-9.139c8.66-0.243,17.329-0.163,25.994-0.171
		c20.5-0.018,41-0.006,61.5-0.006C158.377,291.376,160.151,291.376,161.17,291.376z"/>
</g>
</svg>
